<svg width="128" height="128" fill="none" xmlns="http://www.w3.org/2000/svg"><path fill="#fff" d="M0 0h128v128H0z"/><path fill="#000" d="M0 107h3v21H0z"/><path fill="#000" d="M0 128v-3h21v3z"/><path d="M55.56 113.89c-17.01 0-29.61-6.075-37.8-18.225L35.58 80.95c5.31 7.02 11.97 10.53 19.98 10.53 4.59 0 8.37-1.125 11.34-3.375 2.97-2.25 4.455-4.86 4.455-7.83 0-5.76-4.905-8.64-14.715-8.64h-9.045l-.54-13.5 26.46-19.44h-35.37l5.67-21.195h68.31l-5.13 18.765-28.89 20.115c12.78 3.51 19.17 11.16 19.17 22.95 0 10.26-3.87 18.585-11.61 24.975-7.74 6.39-17.775 9.585-30.105 9.585z" fill="#C4C4C4" fill-opacity=".2"/><path d="M47.816 55.688c.341-2.325.992-4.352 1.952-6.08.981-1.728 2.187-3.168 3.616-4.32 1.45-1.152 3.104-2.005 4.96-2.56 1.856-.576 3.85-.864 5.984-.864 2.304 0 4.352.33 6.144.992 1.792.64 3.307 1.515 4.544 2.624a11.102 11.102 0 012.816 3.872c.64 1.45.96 2.987.96 4.608 0 1.472-.15 2.773-.448 3.904-.299 1.11-.747 2.08-1.344 2.912a8.101 8.101 0 01-2.176 2.08c-.853.555-1.835 1.024-2.944 1.408 5.163 1.813 7.744 5.333 7.744 10.56 0 2.475-.448 4.63-1.344 6.464-.896 1.835-2.101 3.36-3.616 4.576-1.493 1.216-3.232 2.133-5.216 2.752a21.418 21.418 0 01-6.208.896c-2.219 0-4.192-.235-5.92-.704-1.728-.49-3.264-1.237-4.608-2.24-1.344-1.024-2.528-2.325-3.552-3.904-1.003-1.579-1.877-3.456-2.624-5.632l4.416-1.792c1.152-.448 2.219-.565 3.2-.352.981.213 1.685.704 2.112 1.472.96 1.77 1.973 3.061 3.04 3.872 1.088.79 2.357 1.184 3.808 1.184 1.11 0 2.07-.181 2.88-.544.832-.384 1.515-.864 2.048-1.44.555-.597.97-1.27 1.248-2.016a6.48 6.48 0 00.416-2.272c0-1.003-.075-1.899-.224-2.688-.128-.81-.512-1.504-1.152-2.08-.64-.576-1.61-1.013-2.912-1.312-1.28-.32-3.072-.48-5.376-.48v-6.848c1.941 0 3.51-.15 4.704-.448 1.195-.299 2.112-.704 2.752-1.216.661-.533 1.099-1.173 1.312-1.92a8.95 8.95 0 00.32-2.464c0-1.835-.448-3.243-1.344-4.224-.875-1.003-2.219-1.504-4.032-1.504-1.472 0-2.72.395-3.744 1.184-1.003.768-1.696 1.728-2.08 2.88-.448 1.173-1.035 1.952-1.76 2.336-.725.384-1.76.47-3.104.256l-5.248-.928z" fill="#E7490F"/></svg>