<svg width="128" height="128" fill="none" xmlns="http://www.w3.org/2000/svg"><path fill="#fff" d="M0 0h128v128H0z"/><path fill="#000" d="M0 107h3v21H0z"/><path fill="#000" d="M0 128v-3h21v3z"/><path d="M45.34 112l18.63-69.795-15.795 3.78-.54-21.195 29.97-7.965H96.64L71.125 112H45.34z" fill="#C4C4C4" fill-opacity=".2"/><path d="M78.632 81.832V89h-26.56v-7.168h8.96v-23.52a53.876 53.876 0 01.128-3.648l-5.312 4.416c-.47.363-.939.587-1.408.672a4.288 4.288 0 01-1.28 0 3.498 3.498 0 01-1.088-.416c-.32-.213-.555-.427-.704-.64l-3.136-4.16L62.76 42.344h8.192v39.488h7.68z" fill="#E7490F"/></svg>