<svg width="166" height="76" fill="none" xmlns="http://www.w3.org/2000/svg"><g clip-path="url(#clip0_114_403)"><path fill-rule="evenodd" clip-rule="evenodd" d="M136.904 23.067v19.199h11.054v6.16h-18.902V23.068h7.848zm-18.719 0v5.704H103.24v4.105h13.78v5.704h-13.78v4.143h15.367v5.704H95.395v-25.36h22.79zm-41.119 25.36H69.97l-9.889-25.36h8.204l5.316 15.36 5.218-15.36h8.071l-9.823 25.36zm-25.62-25.36v5.704H36.501v4.105h13.78v5.704H36.5v4.143h15.366v5.704h-23.21v-25.36h22.789zm-42.966 0v19.199h11.055v6.16H.635V23.068H8.48zm101.68 45.352l-2.814.215a1.024 1.024 0 00-.366-.578 1.885 1.885 0 00-1.037-.242c-.895 0-1.343.238-1.343.712a.511.511 0 00.221.448c.269.15.562.252.866.303l2.304.523a3.54 3.54 0 011.797.855c.388.429.588.992.557 1.567a2.876 2.876 0 01-.379 1.44 2.629 2.629 0 01-1.01 1.012 6.762 6.762 0 01-3.246.696c-1.699 0-2.873-.357-3.523-1.071a3.38 3.38 0 01-.78-1.809l2.904-.108c.138.69.704 1.032 1.705 1.032a2.03 2.03 0 001.096-.255.781.781 0 00.405-.696c0-.39-.329-.652-.951-.776l-2.255-.44c-1.692-.334-2.538-1.164-2.538-2.492a2.44 2.44 0 01.271-1.208c.193-.374.479-.692.831-.924.738-.51 1.765-.76 3.082-.76 1.509 0 2.607.271 3.292.815.515.444.842 1.067.911 1.74zm-11.215 0l-2.815.215a1.025 1.025 0 00-.369-.578 1.879 1.879 0 00-1.033-.242c-.896 0-1.343.238-1.343.712a.506.506 0 00.22.448c.269.15.562.253.866.303l2.304.523a3.54 3.54 0 011.797.855c.387.43.587.993.557 1.567a2.865 2.865 0 01-.379 1.44 2.597 2.597 0 01-1.014 1.012 6.736 6.736 0 01-3.242.696c-1.699 0-2.873-.357-3.522-1.071a3.375 3.375 0 01-.78-1.809l2.9-.108c.138.69.707 1.034 1.708 1.032.382.02.763-.068 1.096-.255a.788.788 0 00.402-.695c0-.392-.33-.653-.948-.777l-2.258-.44c-1.688-.334-2.533-1.164-2.535-2.492a2.46 2.46 0 011.102-2.132c.738-.51 1.762-.76 3.078-.76 1.515 0 2.612.271 3.292.815a2.67 2.67 0 01.916 1.74zm-11.377-2.276v2.008h-5.62v1.446h5.182v2.008h-5.181v1.463h5.78v2.008H79v-8.933h8.569zm-11.752 0v8.933h-2.387l-3.878-4.796v4.796h-2.818v-8.933h2.403l3.865 4.819v-4.82h2.815zm-11.36 0v2.008h-2.864v6.925h-2.953V68.15h-2.877v-2.008h8.694z" fill="#fff"/><path d="M53.421 66.143h-2.95v8.933h2.95v-8.933z" fill="#fff"/><path fill-rule="evenodd" clip-rule="evenodd" d="M47.788 66.143v2.008h-5.023v1.714h4.622v2.008h-4.622v3.203h-2.95v-8.933h7.973z" fill="#fff"/><path d="M149.373 0v4.927h11.594v16.557H166V0h-16.627z" fill="#E7490F"/></g><defs><clipPath id="clip0_114_403"><path fill="#fff" d="M0 0h166v76H0z"/></clipPath></defs></svg>