<svg width="128" height="128" viewBox="0 0 128 128" fill="none" xmlns="http://www.w3.org/2000/svg">
<rect width="128" height="128" fill="white"/>
<rect y="107" width="3" height="21" fill="black"/>
<rect y="128" width="3" height="21" transform="rotate(-90 0 128)" fill="black"/>
<path d="M55.56 113.89C38.55 113.89 25.95 107.815 17.76 95.665L35.58 80.95C40.89 87.97 47.55 91.48 55.56 91.48C60.15 91.48 63.93 90.355 66.9 88.105C69.87 85.855 71.355 83.245 71.355 80.275C71.355 74.515 66.45 71.635 56.64 71.635H47.595L47.055 58.135L73.515 38.695H38.145L43.815 17.5H112.125L106.995 36.265L78.105 56.38C90.885 59.89 97.275 67.54 97.275 79.33C97.275 89.59 93.405 97.915 85.665 104.305C77.925 110.695 67.89 113.89 55.56 113.89Z" fill="#C4C4C4" fill-opacity="0.2"/>
<path d="M47.816 55.688C48.1573 53.3627 48.808 51.336 49.768 49.608C50.7493 47.88 51.9547 46.44 53.384 45.288C54.8347 44.136 56.488 43.2827 58.344 42.728C60.2 42.152 62.1947 41.864 64.328 41.864C66.632 41.864 68.68 42.1947 70.472 42.856C72.264 43.496 73.7787 44.3707 75.016 45.48C76.2533 46.5893 77.192 47.88 77.832 49.352C78.472 50.8027 78.792 52.3387 78.792 53.96C78.792 55.432 78.6427 56.7333 78.344 57.864C78.0453 58.9733 77.5973 59.944 77 60.776C76.424 61.5867 75.6987 62.28 74.824 62.856C73.9707 63.4107 72.9893 63.88 71.88 64.264C77.0427 66.0773 79.624 69.5973 79.624 74.824C79.624 77.2987 79.176 79.4533 78.28 81.288C77.384 83.1227 76.1787 84.648 74.664 85.864C73.1707 87.08 71.432 87.9973 69.448 88.616C67.464 89.2133 65.3947 89.512 63.24 89.512C61.0213 89.512 59.048 89.2773 57.32 88.808C55.592 88.3173 54.056 87.5707 52.712 86.568C51.368 85.544 50.184 84.2427 49.16 82.664C48.1573 81.0853 47.2827 79.208 46.536 77.032L50.952 75.24C52.104 74.792 53.1707 74.6747 54.152 74.888C55.1333 75.1013 55.8373 75.592 56.264 76.36C57.224 78.1307 58.2373 79.4213 59.304 80.232C60.392 81.0213 61.6613 81.416 63.112 81.416C64.2213 81.416 65.1813 81.2347 65.992 80.872C66.824 80.488 67.5067 80.008 68.04 79.432C68.5947 78.8347 69.0107 78.1627 69.288 77.416C69.5653 76.6693 69.704 75.912 69.704 75.144C69.704 74.1413 69.6293 73.2453 69.48 72.456C69.352 71.6453 68.968 70.952 68.328 70.376C67.688 69.8 66.7173 69.3627 65.416 69.064C64.136 68.744 62.344 68.584 60.04 68.584V61.736C61.9813 61.736 63.5493 61.5867 64.744 61.288C65.9387 60.9893 66.856 60.584 67.496 60.072C68.1573 59.5387 68.5947 58.8987 68.808 58.152C69.0213 57.4053 69.128 56.584 69.128 55.688C69.128 53.8533 68.68 52.4453 67.784 51.464C66.9093 50.4613 65.5653 49.96 63.752 49.96C62.28 49.96 61.032 50.3547 60.008 51.144C59.0053 51.912 58.312 52.872 57.928 54.024C57.48 55.1973 56.8933 55.976 56.168 56.36C55.4427 56.744 54.408 56.8293 53.064 56.616L47.816 55.688Z" fill="#E7490F"/>
</svg>
