<svg width="128" height="128" viewBox="0 0 128 128" fill="none" xmlns="http://www.w3.org/2000/svg">
<rect width="128" height="128" fill="white"/>
<rect y="107" width="3" height="21" fill="black"/>
<rect y="128" width="3" height="21" transform="rotate(-90 0 128)" fill="black"/>
<path d="M45.34 112L63.97 42.205L48.175 45.985L47.635 24.79L77.605 16.825H96.64L71.125 112H45.34Z" fill="#C4C4C4" fill-opacity="0.2"/>
<path d="M78.632 81.832V89H52.072V81.832H61.032V58.312C61.032 57.7147 61.0427 57.1173 61.064 56.52C61.0853 55.9013 61.1173 55.2827 61.16 54.664L55.848 59.08C55.3787 59.4427 54.9093 59.6667 54.44 59.752C53.992 59.816 53.5653 59.816 53.16 59.752C52.7547 59.6667 52.392 59.528 52.072 59.336C51.752 59.1227 51.5173 58.9093 51.368 58.696L48.232 54.536L62.76 42.344H70.952V81.832H78.632Z" fill="#E7490F"/>
</svg>
