<svg width="18" height="20" viewBox="0 0 18 20" fill="none" xmlns="http://www.w3.org/2000/svg">
<path d="M16.499 1.99951H14.249V1.24951C14.249 1.0506 14.17 0.859834 14.0294 0.719182C13.8887 0.578529 13.6979 0.499512 13.499 0.499512C13.3001 0.499512 13.1093 0.578529 12.9687 0.719182C12.828 0.859834 12.749 1.0506 12.749 1.24951V1.99951H5.24902V1.24951C5.24902 1.0506 5.17001 0.859834 5.02935 0.719182C4.8887 0.578529 4.69794 0.499512 4.49902 0.499512C4.30011 0.499512 4.10935 0.578529 3.96869 0.719182C3.82804 0.859834 3.74902 1.0506 3.74902 1.24951V1.99951H1.49902C1.10132 1.9999 0.720016 2.15807 0.438797 2.43929C0.157578 2.7205 -0.000583667 3.10181 -0.000976562 3.49951V18.4995C-0.000583915 18.8972 0.157578 19.2785 0.438797 19.5597C0.720016 19.841 1.10132 19.9991 1.49902 19.9995H16.499C16.8967 19.9991 17.278 19.841 17.5592 19.5597C17.8405 19.2785 17.9986 18.8972 17.999 18.4995V3.49951C17.9986 3.10181 17.8405 2.7205 17.5592 2.43929C17.278 2.15807 16.8967 1.9999 16.499 1.99951ZM16.499 6.49951H1.49902V3.49951H3.74902V4.24951C3.74902 4.44842 3.82804 4.63919 3.96869 4.77984C4.10935 4.92049 4.30011 4.99951 4.49902 4.99951C4.69794 4.99951 4.8887 4.92049 5.02935 4.77984C5.17001 4.63919 5.24902 4.44842 5.24902 4.24951V3.49951H12.749V4.24951C12.749 4.44842 12.828 4.63919 12.9687 4.77984C13.1093 4.92049 13.3001 4.99951 13.499 4.99951C13.6979 4.99951 13.8887 4.92049 14.0294 4.77984C14.17 4.63919 14.249 4.44842 14.249 4.24951V3.49951H16.499V6.49951Z" fill="#E7490F"/>
</svg>
