<svg width="128" height="128" viewBox="0 0 128 128" fill="none" xmlns="http://www.w3.org/2000/svg">
<rect width="128" height="128" fill="white"/>
<path d="M16.545 112L22.08 91.75L70.14 60.43C77.43 55.75 81.075 51.07 81.075 46.39C81.075 43.96 80.265 42.07 78.645 40.72C77.115 39.37 74.865 38.695 71.895 38.695C65.595 38.695 58.44 42.61 50.43 50.44L35.175 34.375C46.335 22.135 59.385 16.015 74.325 16.015C84.495 16.015 92.55 18.535 98.49 23.575C104.52 28.525 107.535 35.005 107.535 43.015C107.535 48.955 105.69 54.445 102 59.485C98.31 64.525 91.875 70.015 82.695 75.955L59.61 90.67H97.275L91.47 112H16.545Z" fill="#C4C4C4" fill-opacity="0.2"/>
<path d="M76.232 80.04C77.2987 80.04 78.1413 80.3387 78.76 80.936C79.3787 81.512 79.688 82.28 79.688 83.24V89H46.92V85.8C46.92 85.1813 47.048 84.52 47.304 83.816C47.56 83.112 48.008 82.472 48.648 81.896L62.088 68.36C63.24 67.208 64.2427 66.1093 65.096 65.064C65.9493 64.0187 66.6533 62.9947 67.208 61.992C67.7627 60.968 68.1787 59.9547 68.456 58.952C68.7333 57.928 68.872 56.8507 68.872 55.72C68.872 53.864 68.424 52.4453 67.528 51.464C66.6533 50.4613 65.3093 49.96 63.496 49.96C62.024 49.96 60.776 50.3547 59.752 51.144C58.7493 51.912 58.056 52.872 57.672 54.024C57.224 55.1973 56.6373 55.976 55.912 56.36C55.1867 56.744 54.152 56.8293 52.808 56.616L47.56 55.688C47.9013 53.3627 48.552 51.336 49.512 49.608C50.4933 47.88 51.6987 46.44 53.128 45.288C54.5787 44.136 56.232 43.2827 58.088 42.728C59.944 42.152 61.9387 41.864 64.072 41.864C66.376 41.864 68.4453 42.2053 70.28 42.888C72.136 43.5493 73.7147 44.4773 75.016 45.672C76.3173 46.8667 77.3093 48.296 77.992 49.96C78.696 51.6027 79.048 53.416 79.048 55.4C79.048 57.1067 78.8027 58.6853 78.312 60.136C77.8427 61.5867 77.192 62.9733 76.36 64.296C75.528 65.5973 74.5573 66.8667 73.448 68.104C72.36 69.32 71.1973 70.5573 69.96 71.816L60.84 81.16C62.0133 80.7973 63.176 80.52 64.328 80.328C65.48 80.136 66.5467 80.04 67.528 80.04H76.232Z" fill="#E7490F"/>
<rect y="107" width="3" height="21" fill="black"/>
<rect y="128" width="3" height="21" transform="rotate(-90 0 128)" fill="black"/>
</svg>
