<svg width="20" height="20" viewBox="0 0 20 20" fill="none" xmlns="http://www.w3.org/2000/svg">
<path fill-rule="evenodd" clip-rule="evenodd" d="M8.90583 0.00305046C9.23061 0.00254211 9.59301 0.00305046 10.0001 0.00305046C13.2571 0.00305046 13.6431 0.0147412 14.9293 0.0731991C16.1186 0.12759 16.7641 0.326349 17.1941 0.493336C17.7634 0.714459 18.1692 0.978791 18.5959 1.40579C19.0229 1.83279 19.2872 2.23945 19.5088 2.80878C19.6757 3.23832 19.8747 3.8839 19.9288 5.07339C19.9873 6.35947 20 6.7458 20 10.0017C20 13.2575 19.9873 13.6438 19.9288 14.9299C19.8745 16.1194 19.6757 16.765 19.5088 17.1945C19.2877 17.7639 19.0229 18.1692 18.5959 18.596C18.169 19.023 17.7636 19.2873 17.1941 19.5084C16.7646 19.6762 16.1186 19.8744 14.9293 19.9288C13.6434 19.9873 13.2571 20 10.0001 20C6.74291 20 6.35688 19.9873 5.07097 19.9288C3.88163 19.8739 3.23613 19.6752 2.80588 19.5082C2.23662 19.2871 1.83001 19.0227 1.40307 18.5957C0.976125 18.1687 0.711826 17.7631 0.490222 17.1935C0.323257 16.764 0.124271 16.1184 0.0701407 14.9289C0.0116901 13.6428 0 13.2565 0 9.9986C0 6.74071 0.0116901 6.35642 0.0701407 5.07034C0.124525 3.88085 0.323257 3.23527 0.490222 2.80522C0.711318 2.23589 0.976125 1.82923 1.40307 1.40223C1.83001 0.975232 2.23662 0.710901 2.80588 0.489269C3.23587 0.32152 3.88163 0.12327 5.07097 0.0686244C6.19627 0.0177913 6.63236 0.00254168 8.90583 0V0.00305046ZM16.5115 2.02875C15.7034 2.02875 15.0477 2.68373 15.0477 3.49223C15.0477 4.30047 15.7034 4.95622 16.5115 4.95622C17.3197 4.95622 17.9753 4.30047 17.9753 3.49223C17.9753 2.68398 17.3197 2.02875 16.5115 2.02875ZM10.0001 3.73928C6.54062 3.73928 3.73575 6.5445 3.73575 10.0044C3.73575 13.4644 6.54062 16.2683 10.0001 16.2683C13.4596 16.2683 16.2635 13.4644 16.2635 10.0044C16.2635 6.5445 13.4596 3.73928 10.0001 3.73928Z" fill="white"/>
<path fill-rule="evenodd" clip-rule="evenodd" d="M10.0001 5.93781C12.2456 5.93781 14.0663 7.75839 14.0663 10.0044C14.0663 12.2503 12.2456 14.0711 10.0001 14.0711C7.75436 14.0711 5.934 12.2503 5.934 10.0044C5.934 7.75839 7.75436 5.93781 10.0001 5.93781Z" fill="white"/>
</svg>
