<svg width="18" height="22" viewBox="0 0 18 22" fill="none" xmlns="http://www.w3.org/2000/svg">
<path d="M8.99902 0.499756C6.81178 0.502351 4.71487 1.37238 3.16826 2.91899C1.62165 4.4656 0.751619 6.56252 0.749023 8.74976C0.749023 15.8088 8.24902 21.1409 8.56836 21.3643C8.69465 21.4525 8.84498 21.4998 8.99902 21.4998C9.15307 21.4998 9.3034 21.4525 9.42969 21.3643C9.74902 21.1409 17.249 15.8088 17.249 8.74976C17.2464 6.56252 16.3764 4.4656 14.8298 2.91899C13.2832 1.37238 11.1863 0.502351 8.99902 0.499756ZM8.99957 5.75003C9.59292 5.75003 10.1729 5.92597 10.6663 6.25562C11.1596 6.58526 11.5441 7.0538 11.7712 7.60198C11.9983 8.15016 12.0577 8.75336 11.9419 9.3353C11.8262 9.91724 11.5405 10.4518 11.1209 10.8713C10.7013 11.2909 10.1668 11.5766 9.58484 11.6924C9.0029 11.8081 8.3997 11.7487 7.85152 11.5217C7.30334 11.2946 6.83481 10.9101 6.50516 10.4167C6.17552 9.92339 5.99957 9.34337 5.99957 8.75003C5.99956 8.35606 6.07715 7.96595 6.22791 7.60196C6.37867 7.23798 6.59965 6.90726 6.87823 6.62868C7.15681 6.3501 7.48753 6.12913 7.85151 5.97837C8.21549 5.82761 8.6056 5.75002 8.99957 5.75003Z" fill="white"/>
</svg>
