<svg width="16" height="17" viewBox="0 0 16 17" fill="none" xmlns="http://www.w3.org/2000/svg">
<path d="M15.2228 11.2455L11.4696 9.63702C11.2736 9.55266 11.0596 9.5187 10.8472 9.53821C10.6347 9.55773 10.4306 9.63012 10.2533 9.74877L8.24652 11.0864C7.02006 10.4899 6.02741 9.50164 5.42548 8.27784L5.42563 8.27768L6.75861 6.2409C6.87463 6.06408 6.94503 5.86126 6.96349 5.65057C6.98195 5.43989 6.94791 5.22791 6.8644 5.03361L5.25442 1.27721C5.14482 1.02223 4.95559 0.809603 4.71503 0.671173C4.47448 0.532742 4.19556 0.475954 3.92004 0.509313C2.83735 0.648518 1.84237 1.17712 1.12098 1.99637C0.399578 2.81562 0.00110656 3.86947 0 4.96107C0 11.3237 5.17632 16.5 11.539 16.5C12.6306 16.4989 13.6844 16.1004 14.5037 15.379C15.3229 14.6576 15.8515 13.6626 15.9907 12.5799C16.024 12.3044 15.9672 12.0255 15.8287 11.7849C15.6903 11.5444 15.4777 11.3552 15.2228 11.2455Z" fill="white"/>
</svg>
