<svg width="16" height="16" viewBox="0 0 16 16" fill="none" xmlns="http://www.w3.org/2000/svg">
<path d="M15.2228 10.7455L11.4696 9.13702C11.2736 9.05266 11.0596 9.0187 10.8472 9.03821C10.6347 9.05773 10.4306 9.13012 10.2533 9.24877L8.24652 10.5864C7.02006 9.98992 6.02741 9.00164 5.42548 7.77784L5.42563 7.77768L6.75861 5.7409C6.87463 5.56408 6.94503 5.36126 6.96349 5.15057C6.98195 4.93989 6.94791 4.72791 6.8644 4.53361L5.25442 0.777213C5.14482 0.522228 4.95559 0.309603 4.71503 0.171173C4.47448 0.032742 4.19556 -0.0240455 3.92004 0.00931265C2.83735 0.148518 1.84237 0.677119 1.12098 1.49637C0.399578 2.31562 0.00110656 3.36947 0 4.46107C0 10.8237 5.17632 16 11.539 16C12.6306 15.9989 13.6844 15.6004 14.5037 14.879C15.3229 14.1576 15.8515 13.1626 15.9907 12.0799C16.024 11.8044 15.9672 11.5255 15.8287 11.2849C15.6903 11.0444 15.4777 10.8552 15.2228 10.7455Z" fill="#E7490F"/>
</svg>
