<svg width="128" height="128" fill="none" xmlns="http://www.w3.org/2000/svg"><path fill="#fff" d="M0 0h128v128H0z"/><path d="M16.545 112l5.535-20.25 48.06-31.32c7.29-4.68 10.935-9.36 10.935-14.04 0-2.43-.81-4.32-2.43-5.67-1.53-1.35-3.78-2.025-6.75-2.025-6.3 0-13.455 3.915-21.465 11.745L35.175 34.375c11.16-12.24 24.21-18.36 39.15-18.36 10.17 0 18.225 2.52 24.165 7.56 6.03 4.95 9.045 11.43 9.045 19.44 0 5.94-1.845 11.43-5.535 16.47-3.69 5.04-10.125 10.53-19.305 16.47L59.61 90.67h37.665L91.47 112H16.545z" fill="#C4C4C4" fill-opacity=".2"/><path d="M76.232 80.04c1.067 0 1.91.299 2.528.896.619.576.928 1.344.928 2.304V89H46.92v-3.2c0-.619.128-1.28.384-1.984s.704-1.344 1.344-1.92l13.44-13.536a44.562 44.562 0 003.008-3.296c.853-1.045 1.557-2.07 2.112-3.072.555-1.024.97-2.037 1.248-3.04.277-1.024.416-2.101.416-3.232 0-1.856-.448-3.275-1.344-4.256-.875-1.003-2.219-1.504-4.032-1.504-1.472 0-2.72.395-3.744 1.184-1.003.768-1.696 1.728-2.08 2.88-.448 1.173-1.035 1.952-1.76 2.336-.725.384-1.76.47-3.104.256l-5.248-.928c.341-2.325.992-4.352 1.952-6.08.981-1.728 2.187-3.168 3.616-4.32 1.45-1.152 3.104-2.005 4.96-2.56 1.856-.576 3.85-.864 5.984-.864 2.304 0 4.373.341 6.208 1.024 1.856.661 3.435 1.59 4.736 2.784a11.851 11.851 0 012.976 4.288c.704 1.643 1.056 3.456 1.056 5.44 0 1.707-.245 3.285-.736 4.736a18.462 18.462 0 01-1.952 4.16 29.597 29.597 0 01-2.912 3.808 108.671 108.671 0 01-3.488 3.712l-9.12 9.344a26.631 26.631 0 013.488-.832 19.555 19.555 0 013.2-.288h8.704z" fill="#E7490F"/><path fill="#000" d="M0 107h3v21H0z"/><path fill="#000" d="M0 128v-3h21v3z"/></svg>